<svg xmlns="http://www.w3.org/2000/svg" viewBox="0 0 1920 1080"><defs><style>.cls-1{fill:#07080d;}.cls-2{fill:#040407;}</style></defs><title>bg2</title><g id="Layer_1" data-name="Layer 1"><rect class="cls-1" width="1920" height="1080"/></g><g id="Layer_2" data-name="Layer 2"><rect class="cls-2" y="34" width="1920" height="6"/><rect class="cls-2" y="46" width="1920" height="6"/><rect class="cls-2" y="58" width="1920" height="6"/><rect class="cls-2" y="70" width="1920" height="6"/><rect class="cls-2" y="82" width="1920" height="6"/><rect class="cls-2" y="94" width="1920" height="6"/><rect class="cls-2" y="107" width="1920" height="6"/><rect class="cls-2" y="119" width="1920" height="6"/><rect class="cls-2" y="131" width="1920" height="6"/><rect class="cls-2" y="143" width="1920" height="6"/><rect class="cls-2" y="155" width="1920" height="6"/><rect class="cls-2" y="167" width="1920" height="6"/><rect class="cls-2" y="179" width="1920" height="6"/><rect class="cls-2" y="191" width="1920" height="6"/><rect class="cls-2" y="203" width="1920" height="6"/><rect class="cls-2" y="215" width="1920" height="6"/><rect class="cls-2" y="227" width="1920" height="6"/><rect class="cls-2" y="239" width="1920" height="6"/><rect class="cls-2" y="252" width="1920" height="6"/><rect class="cls-2" y="264" width="1920" height="6"/><rect class="cls-2" y="276" width="1920" height="6"/><rect class="cls-2" y="288" width="1920" height="6"/><rect class="cls-2" y="300" width="1920" height="6"/><rect class="cls-2" y="312" width="1920" height="6"/><rect class="cls-2" y="325" width="1920" height="6"/><rect class="cls-2" y="337" width="1920" height="6"/><rect class="cls-2" y="349" width="1920" height="6"/><rect class="cls-2" y="361" width="1920" height="6"/><rect class="cls-2" y="373" width="1920" height="6"/><rect class="cls-2" y="385" width="1920" height="6"/><rect class="cls-2" y="398" width="1920" height="6"/><rect class="cls-2" y="410" width="1920" height="6"/><rect class="cls-2" y="422" width="1920" height="6"/><rect class="cls-2" y="434" width="1920" height="6"/><rect class="cls-2" y="446" width="1920" height="6"/><rect class="cls-2" y="458" width="1920" height="6"/><rect class="cls-2" y="470" width="1920" height="6"/><rect class="cls-2" y="482" width="1920" height="6"/><rect class="cls-2" y="494" width="1920" height="6"/><rect class="cls-2" y="506" width="1920" height="6"/><rect class="cls-2" y="518" width="1920" height="6"/><rect class="cls-2" y="530" width="1920" height="6"/><rect class="cls-2" y="543" width="1920" height="6"/><rect class="cls-2" y="555" width="1920" height="6"/><rect class="cls-2" y="567" width="1920" height="6"/><rect class="cls-2" y="579" width="1920" height="6"/><rect class="cls-2" y="591" width="1920" height="6"/><rect class="cls-2" y="603" width="1920" height="6"/><rect class="cls-2" y="616" width="1920" height="6"/><rect class="cls-2" y="628" width="1920" height="6"/><rect class="cls-2" y="640" width="1920" height="6"/><rect class="cls-2" y="652" width="1920" height="6"/><rect class="cls-2" y="664" width="1920" height="6"/><rect class="cls-2" y="676" width="1920" height="6"/><rect class="cls-2" y="689" width="1920" height="6"/><rect class="cls-2" y="701" width="1920" height="6"/><rect class="cls-2" y="713" width="1920" height="6"/><rect class="cls-2" y="725" width="1920" height="6"/><rect class="cls-2" y="737" width="1920" height="6"/><rect class="cls-2" y="749" width="1920" height="6"/><rect class="cls-2" y="761" width="1920" height="6"/><rect class="cls-2" y="773" width="1920" height="6"/><rect class="cls-2" y="785" width="1920" height="6"/><rect class="cls-2" y="797" width="1920" height="6"/><rect class="cls-2" y="809" width="1920" height="6"/><rect class="cls-2" y="821" width="1920" height="6"/><rect class="cls-2" y="834" width="1920" height="6"/><rect class="cls-2" y="846" width="1920" height="6"/><rect class="cls-2" y="858" width="1920" height="6"/><rect class="cls-2" y="870" width="1920" height="6"/><rect class="cls-2" y="882" width="1920" height="6"/><rect class="cls-2" y="894" width="1920" height="6"/><rect class="cls-2" y="907" width="1920" height="6"/><rect class="cls-2" y="919" width="1920" height="6"/><rect class="cls-2" y="931" width="1920" height="6"/><rect class="cls-2" y="943" width="1920" height="6"/><rect class="cls-2" y="955" width="1920" height="6"/><rect class="cls-2" y="967" width="1920" height="6"/><rect class="cls-2" y="980" width="1920" height="6"/><rect class="cls-2" y="992" width="1920" height="6"/><rect class="cls-2" y="1004" width="1920" height="6"/><rect class="cls-2" y="1016" width="1920" height="6"/><rect class="cls-2" y="1028" width="1920" height="6"/><rect class="cls-2" y="1040" width="1920" height="6"/></g></svg>